<svg xmlns="http://www.w3.org/2000/svg" width="21.781" height="17.69" viewBox="0 0 20.875 20.875">
  <path id="Icon_awesome-linkedin-in" data-name="Icon awesome-linkedin-in" d="M4.673,20.875H.345V6.938H4.673ZM2.506,5.037a2.518,2.518,0,1,1,2.506-2.53A2.528,2.528,0,0,1,2.506,5.037ZM20.871,20.875H16.552V14.091c0-1.617-.033-3.69-2.25-3.69-2.25,0-2.595,1.757-2.595,3.574v6.9H7.384V6.938h4.151v1.9H11.6A4.548,4.548,0,0,1,15.69,6.589c4.38,0,5.185,2.884,5.185,6.631v7.656Z" transform="translate(0 0)" fill="#fff"/>
</svg>
