<svg xmlns="http://www.w3.org/2000/svg" width="21.781" height="17.69" viewBox="0 0 21.781 17.69">
  <path id="Icon_awesome-twitter" data-name="Icon awesome-twitter" d="M19.542,7.789c.014.193.014.387.014.58a12.614,12.614,0,0,1-12.7,12.7,12.615,12.615,0,0,1-6.855-2,9.235,9.235,0,0,0,1.078.055A8.94,8.94,0,0,0,6.62,17.215a4.472,4.472,0,0,1-4.174-3.1,5.629,5.629,0,0,0,.843.069,4.721,4.721,0,0,0,1.175-.152A4.465,4.465,0,0,1,.884,9.655V9.6a4.5,4.5,0,0,0,2.018.567A4.471,4.471,0,0,1,1.52,4.2a12.689,12.689,0,0,0,9.2,4.671,5.039,5.039,0,0,1-.111-1.023A4.468,4.468,0,0,1,18.339,4.79a8.789,8.789,0,0,0,2.833-1.078,4.452,4.452,0,0,1-1.962,2.46,8.949,8.949,0,0,0,2.571-.691,9.6,9.6,0,0,1-2.239,2.308Z" transform="translate(0 -3.381)" fill="#fff"/>
</svg>
