<svg xmlns="http://www.w3.org/2000/svg" width="21.781" height="17.69" viewBox="0 0 19.755 19.75">
  <path id="Icon_awesome-instagram" data-name="Icon awesome-instagram" d="M9.874,7.049a5.064,5.064,0,1,0,5.064,5.064A5.056,5.056,0,0,0,9.874,7.049Zm0,8.356a3.292,3.292,0,1,1,3.292-3.292A3.3,3.3,0,0,1,9.874,15.405Zm6.452-8.563a1.181,1.181,0,1,1-1.181-1.181A1.178,1.178,0,0,1,16.327,6.842Zm3.354,1.2a5.845,5.845,0,0,0-1.6-4.138,5.883,5.883,0,0,0-4.138-1.6c-1.631-.093-6.518-.093-8.149,0A5.875,5.875,0,0,0,1.66,3.9a5.864,5.864,0,0,0-1.6,4.138c-.093,1.631-.093,6.518,0,8.149a5.845,5.845,0,0,0,1.6,4.138,5.891,5.891,0,0,0,4.138,1.6c1.631.093,6.518.093,8.149,0a5.845,5.845,0,0,0,4.138-1.6,5.883,5.883,0,0,0,1.6-4.138c.093-1.631.093-6.514,0-8.144Zm-2.107,9.894A3.333,3.333,0,0,1,15.7,19.812c-1.3.516-4.385.4-5.822.4s-4.526.115-5.822-.4a3.333,3.333,0,0,1-1.877-1.877c-.516-1.3-.4-4.385-.4-5.822s-.115-4.526.4-5.822A3.333,3.333,0,0,1,4.053,4.414c1.3-.516,4.385-.4,5.822-.4s4.526-.115,5.822.4a3.333,3.333,0,0,1,1.877,1.877c.516,1.3.4,4.385.4,5.822S18.089,16.639,17.574,17.935Z" transform="translate(0.005 -2.238)" fill="#fff"/>
</svg>
