<svg xmlns="http://www.w3.org/2000/svg" width="37.016" height="54.981" viewBox="0 0 37.016 54.981"><defs><style>.a{fill:#f04464;}</style></defs><g transform="translate(0)"><path class="a" d="M36.654,12.24a8.477,8.477,0,1,0,8.477,8.477A8.487,8.487,0,0,0,36.654,12.24Zm.639,10.684L35.376,24.84,33.46,22.923,31.6,21.065l1.916-1.916,1.858,1.858,4.413-4.413,1.916,1.916Zm16.316-4.587a2.434,2.434,0,0,1-.639-2.729l.348-.871a2.4,2.4,0,0,0-1.568-3.252l-.929-.232A2.425,2.425,0,0,1,49.08,9.046V8.059a2.4,2.4,0,0,0-2.787-2.264l-.929.174a2.3,2.3,0,0,1-2.5-1.219L42.4,3.937a2.394,2.394,0,0,0-3.484-.813l-.755.523a2.447,2.447,0,0,1-2.787,0l-.755-.581a2.415,2.415,0,0,0-3.542.813l-.465.813A2.417,2.417,0,0,1,28.06,5.911l-.929-.174A2.454,2.454,0,0,0,24.286,8l-.058.929a2.425,2.425,0,0,1-1.742,2.206l-.929.29a2.4,2.4,0,0,0-1.568,3.252l.348.871a2.434,2.434,0,0,1-.639,2.729l-.7.639a2.372,2.372,0,0,0,0,3.6l.7.639a2.434,2.434,0,0,1,.639,2.729l-.348.871a2.4,2.4,0,0,0,1.568,3.252l.929.232a2.425,2.425,0,0,1,1.742,2.206l.058.929a2.4,2.4,0,0,0,2.787,2.264L28,35.465a2.3,2.3,0,0,1,2.5,1.219l.465.813a2.394,2.394,0,0,0,3.484.813l.755-.523a2.447,2.447,0,0,1,2.787,0l.755.581a2.415,2.415,0,0,0,3.542-.813l.465-.813a2.417,2.417,0,0,1,2.555-1.219l.929.174a2.454,2.454,0,0,0,2.845-2.264l.058-.929A2.425,2.425,0,0,1,50.879,30.3l.929-.232a2.4,2.4,0,0,0,1.568-3.252l-.348-.871a2.434,2.434,0,0,1,.639-2.729l.7-.639a2.372,2.372,0,0,0,0-3.6ZM36.654,32.5A11.729,11.729,0,1,1,48.383,20.775,11.733,11.733,0,0,1,36.654,32.5ZM18.422,52.943l5.69-14.226a6.058,6.058,0,0,0,2.5.581,6.4,6.4,0,0,0,1.045-.116h.116l.058.116a5.887,5.887,0,0,0,5.226,3.019,5.765,5.765,0,0,0,1.742-.29L28.815,57.065a.567.567,0,0,1-1.045.058L24.925,52.13a.389.389,0,0,0-.465-.174l-5.342,1.684A.537.537,0,0,1,18.422,52.943Zm26.071,4.3-6.039-15.1a6.081,6.081,0,0,0,1.742.29,5.892,5.892,0,0,0,5.226-3.077l.058-.116H45.6a6.4,6.4,0,0,0,1.045.116,6.329,6.329,0,0,0,2.555-.581l5.69,14.342a.559.559,0,0,1-.7.755l-5.342-1.684a.389.389,0,0,0-.465.174l-2.845,4.993A.629.629,0,0,1,44.492,57.239Z" transform="translate(-18.175 -2.603)"/></g></svg>