<svg xmlns="http://www.w3.org/2000/svg" width="46.26" height="57.966" viewBox="0 0 46.26 57.966"><defs><style>.a{fill:#f04464;}</style></defs><g transform="translate(-11.985 -2.5)"><g transform="translate(11.985 2.5)"><path class="a" d="M31.459,72.7a11.289,11.289,0,0,1-12.325,0,9.781,9.781,0,0,0-6.773,8.054l-.366,4.576a2.325,2.325,0,0,0,2.319,2.5H36.157a2.325,2.325,0,0,0,2.319-2.5l-.366-4.576A9.456,9.456,0,0,0,31.459,72.7Z" transform="translate(-11.985 -29.866)"/><circle class="a" cx="8.298" cy="8.298" r="8.298" transform="translate(5.013 25.139)"/><path class="a" d="M67.631,2.5h-20.2A3.255,3.255,0,0,0,44.2,5.734V22.7a3.255,3.255,0,0,0,3.234,3.234h2.99V31.3a1.192,1.192,0,0,0,2.014.854l6.468-6.224H67.57A3.255,3.255,0,0,0,70.8,22.7V5.734A3.2,3.2,0,0,0,67.631,2.5ZM64.7,12.69l-3.173,2.746a.492.492,0,0,0-.183.549l.976,4.088a.573.573,0,0,1-.854.61l-3.6-2.2a.554.554,0,0,0-.61,0l-3.6,2.2a.573.573,0,0,1-.854-.61l.976-4.088a.492.492,0,0,0-.183-.549L50.424,12.69a.555.555,0,0,1,.305-.976l4.21-.366a.511.511,0,0,0,.488-.366l1.647-3.905a.55.55,0,0,1,1.037,0l1.647,3.905a.633.633,0,0,0,.488.366l4.21.366A.563.563,0,0,1,64.7,12.69Z" transform="translate(-24.543 -2.5)"/></g></g></svg>