<svg xmlns="http://www.w3.org/2000/svg" width="48.069" height="48.069" viewBox="0 0 48.069 48.069"><defs><style>.a{fill:#f04464;}</style></defs><g transform="translate(0)"><path class="a" d="M30.608,41.125c3.643,0,5.608-1.137,5.608-1.6V37.6a12.7,12.7,0,0,1-5.608,1.122A12.7,12.7,0,0,1,25,37.6v1.923C25,39.988,26.965,41.125,30.608,41.125Z" transform="translate(-6.574 -9.08)"/><path class="a" d="M30.608,31.125c3.643,0,5.608-1.137,5.608-1.6V27.6a12.7,12.7,0,0,1-5.608,1.122A12.7,12.7,0,0,1,25,27.6v1.923C25,29.988,26.965,31.125,30.608,31.125Z" transform="translate(-6.574 -7.091)"/><path class="a" d="M30.608,36.125c3.643,0,5.608-1.137,5.608-1.6V32.6a12.7,12.7,0,0,1-5.608,1.122A12.7,12.7,0,0,1,25,32.6v1.923C25,34.988,26.965,36.125,30.608,36.125Z" transform="translate(-6.574 -8.085)"/><ellipse class="a" cx="5.142" cy="1.402" rx="5.142" ry="1.402" transform="translate(18.697 17.218)"/><path class="a" d="M7.276,38.051,3.6,41.725v3.684a2.4,2.4,0,1,0,1.6,0v-3.02L7.94,39.653h9.709a15.939,15.939,0,0,0,1.795.974l.182.082v3.418L16.89,46.864H15.472a2.4,2.4,0,1,0,0,1.6h2.081l3.674-3.674V39.517l.53-.566a13.453,13.453,0,0,0,1.516.405l.6,2.564.571.056c.269.026.526.026.791.04v3.393a2.4,2.4,0,1,0,1.6,0V42.017c.264-.014.522-.014.791-.04l.571-.056.6-2.564a13.439,13.439,0,0,0,1.515-.405l.53.566v5.274l3.674,3.674H36.6a2.4,2.4,0,1,0,0-1.6H35.178l-2.735-2.735V40.71l.182-.082a15.949,15.949,0,0,0,1.795-.974h9.709l2.735,2.734v3.02a2.4,2.4,0,1,0,1.6,0V41.725l-3.674-3.674H35.65l-.561-1.846a13.583,13.583,0,0,0,1.116-1.116l2.489.757.335-.465c.311-.431.6-.878.866-1.336h3.11a2.4,2.4,0,1,0,0-1.6h-2.3l.154-.34-1.912-1.791a13.453,13.453,0,0,0,.405-1.516l2.564-.6.056-.571c.026-.269.026-.526.04-.791h3.393a2.4,2.4,0,1,0,0-1.6H42.017c-.014-.264-.014-.522-.04-.791l-.056-.571-2.564-.6a13.439,13.439,0,0,0-.405-1.515l1.912-1.791-.154-.341h2.3a2.4,2.4,0,1,0,0-1.6H39.9q-.4-.687-.865-1.335l-.335-.465-2.49.756a13.582,13.582,0,0,0-1.116-1.116l.561-1.846h9.141l3.674-3.674V6.659a2.4,2.4,0,1,0-1.6,0V9.68l-2.735,2.735H34.419a15.88,15.88,0,0,0-1.795-.974l-.182-.083V7.94L35.178,5.2H36.6a2.4,2.4,0,1,0,0-1.6H34.515L30.841,7.276v5.275l-.53.566a13.453,13.453,0,0,0-1.516-.405l-.6-2.564-.571-.056c-.269-.026-.528-.026-.791-.039V6.659a2.4,2.4,0,1,0-1.6,0v3.393c-.263.014-.522.013-.791.039l-.571.056-.6,2.564a13.44,13.44,0,0,0-1.515.405l-.53-.566V7.276L17.553,3.6H15.472a2.4,2.4,0,1,0,0,1.6H16.89L19.625,7.94v3.418l-.182.082a15.95,15.95,0,0,0-1.795.974H7.94L5.2,9.68V6.659a2.4,2.4,0,1,0-1.6,0v3.684l3.674,3.674h9.142l.561,1.846a13.709,13.709,0,0,0-1.116,1.116l-2.489-.756-.335.465q-.466.645-.867,1.335H9.062a2.4,2.4,0,1,0,0,1.6h2.3l-.154.34,1.912,1.791a13.453,13.453,0,0,0-.405,1.516l-2.564.6-.056.571c-.026.269-.026.526-.04.791H6.659a2.4,2.4,0,1,0,0,1.6h3.393c.014.264.014.522.04.791l.056.571,2.564.6a13.439,13.439,0,0,0,.405,1.515L11.205,32.1l.153.341h-2.3a2.4,2.4,0,1,0,0,1.6h3.11q.4.687.865,1.335l.335.465,2.49-.756a13.583,13.583,0,0,0,1.116,1.116l-.562,1.846Zm11.548-9.614V20.426c0-2.1,3.627-3.2,7.21-3.2s7.21,1.1,7.21,3.2V32.443c0,2.1-3.627,3.2-7.21,3.2s-7.21-1.1-7.21-3.2Z" transform="translate(-2 -2)"/></g></svg>