<svg xmlns="http://www.w3.org/2000/svg" width="46.696" height="47.958" viewBox="0 0 46.696 47.958"><defs><style>.a{fill:#f04464;}</style></defs><g transform="translate(0)"><g transform="translate(0)"><path class="a" d="M48.528,59.461h-2.07V56.735a6.42,6.42,0,0,0-6.411-6.411H28.537v-6.26a1.464,1.464,0,1,0-2.928,0v6.26H14.1a6.42,6.42,0,0,0-6.411,6.411v2.726H5.618A1.917,1.917,0,0,0,3.7,61.379V68.4a1.917,1.917,0,0,0,1.918,1.918h7.017A1.917,1.917,0,0,0,14.554,68.4V61.379a1.917,1.917,0,0,0-1.918-1.918h-2.07V56.735a3.49,3.49,0,0,1,3.483-3.483h11.51v6.209H23.54a1.917,1.917,0,0,0-1.918,1.918V68.4a1.917,1.917,0,0,0,1.918,1.918h7.068A1.917,1.917,0,0,0,32.525,68.4V61.379a1.917,1.917,0,0,0-1.918-1.918h-2.07V53.252h11.51a3.49,3.49,0,0,1,3.483,3.483v2.726h-2.07a1.917,1.917,0,0,0-1.918,1.918V68.4a1.917,1.917,0,0,0,1.918,1.918h7.017A1.917,1.917,0,0,0,50.4,68.4V61.379A1.907,1.907,0,0,0,48.528,59.461Z" transform="translate(-3.7 -22.357)"/><path class="a" d="M33.993,22.045l6.815,3.13.05-.05V15.381L33.69,12.1h0v9.339A.541.541,0,0,0,33.993,22.045Z" transform="translate(-18.546 -7.254)"/><path class="a" d="M43.216,8.81l6.916-3.13v-.1L43.468,2.55a.656.656,0,0,0-.5,0L36.3,5.579v.1Z" transform="translate(-19.843 -2.5)"/><path class="a" d="M52.1,15.432v9.693l.1.151-.05-.151,6.815-3.13a.608.608,0,0,0,.353-.5V12.15l-.05-.05L52.1,15.432Z" transform="translate(-27.667 -7.254)"/></g></g></svg>