<svg xmlns="http://www.w3.org/2000/svg" width="21.781" height="17.69" viewBox="0 0 27.09 19.048">
  <path id="Icon_awesome-youtube" data-name="Icon awesome-youtube" d="M27.574,7.48a3.4,3.4,0,0,0-2.4-2.411C23.066,4.5,14.6,4.5,14.6,4.5s-8.471,0-10.584.57a3.4,3.4,0,0,0-2.4,2.411,35.708,35.708,0,0,0-.566,6.563,35.708,35.708,0,0,0,.566,6.563,3.353,3.353,0,0,0,2.4,2.372c2.113.57,10.584.57,10.584.57s8.471,0,10.584-.57a3.353,3.353,0,0,0,2.4-2.372,35.708,35.708,0,0,0,.566-6.563,35.708,35.708,0,0,0-.566-6.563ZM11.824,18.071V10.015l7.08,4.028-7.08,4.028Z" transform="translate(-1.05 -4.5)" fill="#fff"/>
</svg>